<?xml version="1.0" encoding="UTF-8"?><svg id="Layer_1" xmlns="http://www.w3.org/2000/svg" viewBox="0 0 240 120"><defs><style>.cls-1{fill:#0050ff;stroke-width:0px;}</style></defs><path class="cls-1" d="M202.8,42.8c-.15,0-.3,0-.44,0-.22,0-.44.02-.66.03h-.22c-.16.03-.31.04-.46.05-.14.01-.27.03-.4.05-.14.02-.29.04-.43.06-.11.02-.21.03-.31.05-.11.02-.23.04-.34.06-.17.03-.35.07-.52.11-.11.02-.21.05-.32.07-.15.04-.3.08-.45.12-.12.03-.24.07-.37.11-.11.03-.21.06-.32.1-.04.01-.09.03-.13.04-.08.03-.16.05-.24.08-.18.06-.35.12-.53.19-.1.04-.21.08-.31.12v-13.08c0-2.97-2.41-5.38-5.38-5.38s-5.38,2.41-5.38,5.38v13.08c-1.99-.81-4.17-1.26-6.45-1.26-2.8,0-5.43.67-7.77,1.85-.99-1.14-2.44-1.85-4.06-1.85s-3.08.72-4.06,1.85c-.82.94-1.32,2.17-1.32,3.52v11.83c0,3.56-2.89,6.45-6.45,6.45s-6.45-2.89-6.45-6.45v-11.83c0-1.35-.5-2.58-1.32-3.52-.98-1.14-2.43-1.85-4.06-1.85s-3.08.72-4.06,1.85c-2.33-1.18-4.97-1.85-7.77-1.85-2.28,0-4.46.45-6.45,1.26v-13.08c0-2.97-2.41-5.38-5.38-5.38s-5.38,2.41-5.38,5.38v13.08c-1.99-.81-4.17-1.25-6.45-1.25-2.8,0-5.43.67-7.77,1.85-.99-1.14-2.44-1.85-4.06-1.85s-3.08.72-4.06,1.85c-.82.94-1.32,2.17-1.32,3.52v11.83c0,3.56-2.89,6.45-6.45,6.45s-6.45-2.89-6.45-6.45v-11.83c0-1.35-.5-2.58-1.32-3.52-.98-1.14-2.43-1.85-4.06-1.85s-3.08.72-4.06,1.85c-2.33-1.18-4.97-1.85-7.77-1.85-2.28,0-4.46.45-6.45,1.26v-13.08c0-2.97-2.41-5.38-5.38-5.38s-5.38,2.41-5.38,5.38v13.08c-1.99-.81-4.17-1.25-6.45-1.25-9.5,0-17.2,7.7-17.2,17.2s7.7,17.2,17.2,17.2c2.28,0,4.46-.44,6.45-1.25,2.01-.81,3.83-2,5.38-3.46,3.08,2.92,7.24,4.72,11.83,4.72s8.74-1.8,11.83-4.72c3.08,2.92,7.25,4.72,11.83,4.72s8.74-1.8,11.83-4.72c3.08,2.92,7.25,4.72,11.83,4.72,2.28,0,4.46-.44,6.45-1.25,2.01-.81,3.83-2,5.38-3.46,3.08,2.92,7.24,4.72,11.83,4.72s8.74-1.8,11.83-4.72c3.08,2.92,7.25,4.72,11.83,4.72s8.74-1.8,11.83-4.72c3.08,2.92,7.25,4.72,11.83,4.72,2.28,0,4.46-.45,6.45-1.26v1.26c0,3.56-2.89,6.45-6.45,6.45-2.39,0-4.47-1.3-5.59-3.23-1.49-2.57-4.77-3.45-7.35-1.97-2.57,1.49-3.45,4.77-1.97,7.35h0c.75,1.31,1.68,2.5,2.74,3.56,3.11,3.11,7.41,5.04,12.16,5.04,9.5,0,17.2-7.7,17.2-17.2v-17.2c0-3.56,2.89-6.45,6.45-6.45s6.45,2.89,6.45,6.45v11.83c0,1.35.5,2.58,1.32,3.52.98,1.14,2.43,1.85,4.06,1.85,2.97,0,5.38-2.41,5.38-5.38v-11.83c0-9.5-7.7-17.2-17.2-17.2ZM37.2,66.45c-3.56,0-6.45-2.89-6.45-6.45s2.89-6.45,6.45-6.45,6.45,2.89,6.45,6.45-2.89,6.45-6.45,6.45ZM60.86,66.45c-3.56,0-6.45-2.89-6.45-6.45s2.89-6.45,6.45-6.45,6.45,2.89,6.45,6.45-2.89,6.45-6.45,6.45ZM108.17,66.45c-3.56,0-6.45-2.89-6.45-6.45s2.89-6.45,6.45-6.45,6.45,2.89,6.45,6.45-2.89,6.45-6.45,6.45ZM131.83,66.45c-3.56,0-6.45-2.89-6.45-6.45s2.89-6.45,6.45-6.45,6.45,2.89,6.45,6.45-2.89,6.45-6.45,6.45ZM179.14,66.45c-3.56,0-6.45-2.89-6.45-6.45s2.89-6.45,6.45-6.45,6.45,2.89,6.45,6.45-2.89,6.45-6.45,6.45Z"/></svg>