<svg width="24" height="24" viewBox="0 0 24 24" fill="none" margin="0px" xmlns="http://www.w3.org/2000/svg">
<path fill-rule="evenodd" clip-rule="evenodd" d="M12 20C16.4183 20 20 16.4183 20 12C20 7.58172 16.4183 4 12 4C7.58172 4 4 7.58172 4 12C4 16.4183 7.58172 20 12 20ZM12 22C17.5228 22 22 17.5228 22 12C22 6.47715 17.5228 2 12 2C6.47715 2 2 6.47715 2 12C2 17.5228 6.47715 22 12 22Z" fill="#0032FF"/>
<path d="M10.25 10C10.25 10.6904 9.69036 11.25 9 11.25C8.30964 11.25 7.75 10.6904 7.75 10C7.75 9.30964 8.30964 8.75 9 8.75C9.69036 8.75 10.25 9.30964 10.25 10Z" fill="#0032FF"/>
<path d="M16.25 10C16.25 10.6904 15.6904 11.25 15 11.25C14.3096 11.25 13.75 10.6904 13.75 10C13.75 9.30964 14.3096 8.75 15 8.75C15.6904 8.75 16.25 9.30964 16.25 10Z" fill="#0032FF"/>
<path fill-rule="evenodd" clip-rule="evenodd" d="M16.2426 13.8285C16.6332 14.219 16.6332 14.8521 16.2426 15.2427C13.8995 17.5858 10.1005 17.5858 7.75736 15.2427C7.36684 14.8521 7.36684 14.219 7.75736 13.8285C8.14788 13.4379 8.78105 13.4379 9.17157 13.8285C10.7337 15.3906 13.2663 15.3906 14.8284 13.8285C15.219 13.4379 15.8521 13.4379 16.2426 13.8285Z" fill="#0032FF"/>
</svg>
